<mxfile host="app.diagrams.net" agent="Mozilla/5.0 (Windows NT 10.0; Win64; x64) AppleWebKit/537.36 (KHTML, like Gecko) Chrome/130.0.0.0 Safari/537.36" version="24.8.3">
  <diagram name="Página-1" id="oBY7auksgvxB16SZmFY_">
    <mxGraphModel dx="2901" dy="1098" grid="1" gridSize="10" guides="1" tooltips="1" connect="1" arrows="1" fold="1" page="1" pageScale="1" pageWidth="827" pageHeight="1169" math="0" shadow="0">
      <root>
        <mxCell id="0" />
        <mxCell id="1" parent="0" />
        <mxCell id="TGVfy2ttgha-GvC5qpDi-1" value="Departament" style="swimlane;fontStyle=0;childLayout=stackLayout;horizontal=1;startSize=30;horizontalStack=0;resizeParent=1;resizeParentMax=0;resizeLast=0;collapsible=1;marginBottom=0;whiteSpace=wrap;html=1;" parent="1" vertex="1">
          <mxGeometry x="700" y="230" width="160" height="60" as="geometry" />
        </mxCell>
        <mxCell id="TGVfy2ttgha-GvC5qpDi-2" value="&lt;u&gt;Nom&lt;/u&gt;" style="text;strokeColor=none;fillColor=none;align=left;verticalAlign=middle;spacingLeft=4;spacingRight=4;overflow=hidden;points=[[0,0.5],[1,0.5]];portConstraint=eastwest;rotatable=0;whiteSpace=wrap;html=1;" parent="TGVfy2ttgha-GvC5qpDi-1" vertex="1">
          <mxGeometry y="30" width="160" height="30" as="geometry" />
        </mxCell>
        <mxCell id="TGVfy2ttgha-GvC5qpDi-5" value="Empleat" style="swimlane;fontStyle=0;childLayout=stackLayout;horizontal=1;startSize=30;horizontalStack=0;resizeParent=1;resizeParentMax=0;resizeLast=0;collapsible=1;marginBottom=0;whiteSpace=wrap;html=1;" parent="1" vertex="1">
          <mxGeometry x="240" y="200" width="160" height="150" as="geometry" />
        </mxCell>
        <mxCell id="TGVfy2ttgha-GvC5qpDi-6" value="&lt;u&gt;DNI&lt;/u&gt;" style="text;strokeColor=none;fillColor=none;align=left;verticalAlign=middle;spacingLeft=4;spacingRight=4;overflow=hidden;points=[[0,0.5],[1,0.5]];portConstraint=eastwest;rotatable=0;whiteSpace=wrap;html=1;" parent="TGVfy2ttgha-GvC5qpDi-5" vertex="1">
          <mxGeometry y="30" width="160" height="30" as="geometry" />
        </mxCell>
        <mxCell id="TGVfy2ttgha-GvC5qpDi-7" value="Nom" style="text;strokeColor=none;fillColor=none;align=left;verticalAlign=middle;spacingLeft=4;spacingRight=4;overflow=hidden;points=[[0,0.5],[1,0.5]];portConstraint=eastwest;rotatable=0;whiteSpace=wrap;html=1;" parent="TGVfy2ttgha-GvC5qpDi-5" vertex="1">
          <mxGeometry y="60" width="160" height="30" as="geometry" />
        </mxCell>
        <mxCell id="TGVfy2ttgha-GvC5qpDi-8" value="Adreça" style="text;strokeColor=none;fillColor=none;align=left;verticalAlign=middle;spacingLeft=4;spacingRight=4;overflow=hidden;points=[[0,0.5],[1,0.5]];portConstraint=eastwest;rotatable=0;whiteSpace=wrap;html=1;" parent="TGVfy2ttgha-GvC5qpDi-5" vertex="1">
          <mxGeometry y="90" width="160" height="30" as="geometry" />
        </mxCell>
        <mxCell id="TGVfy2ttgha-GvC5qpDi-17" value="Telèfon" style="text;strokeColor=none;fillColor=none;align=left;verticalAlign=middle;spacingLeft=4;spacingRight=4;overflow=hidden;points=[[0,0.5],[1,0.5]];portConstraint=eastwest;rotatable=0;whiteSpace=wrap;html=1;" parent="TGVfy2ttgha-GvC5qpDi-5" vertex="1">
          <mxGeometry y="120" width="160" height="30" as="geometry" />
        </mxCell>
        <mxCell id="TGVfy2ttgha-GvC5qpDi-11" value="" style="endArrow=none;html=1;rounded=0;exitX=0.988;exitY=1.067;exitDx=0;exitDy=0;exitPerimeter=0;entryX=0;entryY=0.5;entryDx=0;entryDy=0;" parent="1" source="TGVfy2ttgha-GvC5qpDi-6" target="TGVfy2ttgha-GvC5qpDi-9" edge="1">
          <mxGeometry width="50" height="50" relative="1" as="geometry">
            <mxPoint x="244" y="262" as="sourcePoint" />
            <mxPoint x="624" y="260" as="targetPoint" />
          </mxGeometry>
        </mxCell>
        <mxCell id="TGVfy2ttgha-GvC5qpDi-14" value="(1,n)" style="edgeLabel;html=1;align=center;verticalAlign=middle;resizable=0;points=[];" parent="TGVfy2ttgha-GvC5qpDi-11" vertex="1" connectable="0">
          <mxGeometry x="0.1587" y="-1" relative="1" as="geometry">
            <mxPoint as="offset" />
          </mxGeometry>
        </mxCell>
        <mxCell id="TGVfy2ttgha-GvC5qpDi-12" value="" style="endArrow=none;html=1;rounded=0;exitX=-0.019;exitY=0.067;exitDx=0;exitDy=0;exitPerimeter=0;" parent="1" source="TGVfy2ttgha-GvC5qpDi-2" edge="1">
          <mxGeometry width="50" height="50" relative="1" as="geometry">
            <mxPoint x="810" y="260" as="sourcePoint" />
            <mxPoint x="610" y="260" as="targetPoint" />
          </mxGeometry>
        </mxCell>
        <mxCell id="TGVfy2ttgha-GvC5qpDi-13" value="(1,1)" style="edgeLabel;html=1;align=center;verticalAlign=middle;resizable=0;points=[];" parent="TGVfy2ttgha-GvC5qpDi-12" vertex="1" connectable="0">
          <mxGeometry x="-0.2416" relative="1" as="geometry">
            <mxPoint x="-17" as="offset" />
          </mxGeometry>
        </mxCell>
        <mxCell id="TGVfy2ttgha-GvC5qpDi-16" value="" style="group" parent="1" vertex="1" connectable="0">
          <mxGeometry x="530" y="180" width="80" height="120" as="geometry" />
        </mxCell>
        <mxCell id="TGVfy2ttgha-GvC5qpDi-9" value="E&lt;div&gt;.................&lt;/div&gt;&lt;div&gt;&lt;br&gt;&lt;/div&gt;&lt;div&gt;&lt;br&gt;&lt;/div&gt;&lt;div&gt;&lt;br&gt;&lt;/div&gt;" style="rhombus;whiteSpace=wrap;html=1;" parent="TGVfy2ttgha-GvC5qpDi-16" vertex="1">
          <mxGeometry y="40" width="80" height="80" as="geometry" />
        </mxCell>
        <mxCell id="TGVfy2ttgha-GvC5qpDi-15" value="1:N" style="text;html=1;align=center;verticalAlign=middle;resizable=0;points=[];autosize=1;strokeColor=none;fillColor=none;" parent="TGVfy2ttgha-GvC5qpDi-16" vertex="1">
          <mxGeometry x="20" width="40" height="30" as="geometry" />
        </mxCell>
        <mxCell id="TGVfy2ttgha-GvC5qpDi-18" value="Projecte" style="swimlane;fontStyle=0;childLayout=stackLayout;horizontal=1;startSize=30;horizontalStack=0;resizeParent=1;resizeParentMax=0;resizeLast=0;collapsible=1;marginBottom=0;whiteSpace=wrap;html=1;" parent="1" vertex="1">
          <mxGeometry x="-360" y="190" width="160" height="150" as="geometry" />
        </mxCell>
        <mxCell id="TGVfy2ttgha-GvC5qpDi-19" value="&lt;u&gt;IdProjecte&lt;/u&gt;" style="text;strokeColor=none;fillColor=none;align=left;verticalAlign=middle;spacingLeft=4;spacingRight=4;overflow=hidden;points=[[0,0.5],[1,0.5]];portConstraint=eastwest;rotatable=0;whiteSpace=wrap;html=1;" parent="TGVfy2ttgha-GvC5qpDi-18" vertex="1">
          <mxGeometry y="30" width="160" height="30" as="geometry" />
        </mxCell>
        <mxCell id="TGVfy2ttgha-GvC5qpDi-20" value="Titol" style="text;strokeColor=none;fillColor=none;align=left;verticalAlign=middle;spacingLeft=4;spacingRight=4;overflow=hidden;points=[[0,0.5],[1,0.5]];portConstraint=eastwest;rotatable=0;whiteSpace=wrap;html=1;" parent="TGVfy2ttgha-GvC5qpDi-18" vertex="1">
          <mxGeometry y="60" width="160" height="30" as="geometry" />
        </mxCell>
        <mxCell id="TGVfy2ttgha-GvC5qpDi-21" value="Durada Est" style="text;strokeColor=none;fillColor=none;align=left;verticalAlign=middle;spacingLeft=4;spacingRight=4;overflow=hidden;points=[[0,0.5],[1,0.5]];portConstraint=eastwest;rotatable=0;whiteSpace=wrap;html=1;" parent="TGVfy2ttgha-GvC5qpDi-18" vertex="1">
          <mxGeometry y="90" width="160" height="30" as="geometry" />
        </mxCell>
        <mxCell id="TGVfy2ttgha-GvC5qpDi-22" value="Pressupost" style="text;strokeColor=none;fillColor=none;align=left;verticalAlign=middle;spacingLeft=4;spacingRight=4;overflow=hidden;points=[[0,0.5],[1,0.5]];portConstraint=eastwest;rotatable=0;whiteSpace=wrap;html=1;" parent="TGVfy2ttgha-GvC5qpDi-18" vertex="1">
          <mxGeometry y="120" width="160" height="30" as="geometry" />
        </mxCell>
        <mxCell id="TGVfy2ttgha-GvC5qpDi-28" value="" style="endArrow=none;html=1;rounded=0;exitX=1.063;exitY=1;exitDx=0;exitDy=0;exitPerimeter=0;entryX=0;entryY=0.5;entryDx=0;entryDy=0;" parent="1" source="TGVfy2ttgha-GvC5qpDi-20" target="TGVfy2ttgha-GvC5qpDi-32" edge="1">
          <mxGeometry width="50" height="50" relative="1" as="geometry">
            <mxPoint x="-150" y="282" as="sourcePoint" />
            <mxPoint x="72" y="280" as="targetPoint" />
          </mxGeometry>
        </mxCell>
        <mxCell id="TGVfy2ttgha-GvC5qpDi-29" value="(1,1)" style="edgeLabel;html=1;align=center;verticalAlign=middle;resizable=0;points=[];" parent="TGVfy2ttgha-GvC5qpDi-28" vertex="1" connectable="0">
          <mxGeometry x="0.1587" y="-1" relative="1" as="geometry">
            <mxPoint as="offset" />
          </mxGeometry>
        </mxCell>
        <mxCell id="TGVfy2ttgha-GvC5qpDi-30" value="" style="endArrow=none;html=1;rounded=0;exitX=0;exitY=0.5;exitDx=0;exitDy=0;" parent="1" source="TGVfy2ttgha-GvC5qpDi-7" edge="1">
          <mxGeometry width="50" height="50" relative="1" as="geometry">
            <mxPoint x="185" y="282" as="sourcePoint" />
            <mxPoint x="58" y="280" as="targetPoint" />
          </mxGeometry>
        </mxCell>
        <mxCell id="TGVfy2ttgha-GvC5qpDi-31" value="(1,n)" style="edgeLabel;html=1;align=center;verticalAlign=middle;resizable=0;points=[];" parent="TGVfy2ttgha-GvC5qpDi-30" vertex="1" connectable="0">
          <mxGeometry x="-0.2416" relative="1" as="geometry">
            <mxPoint x="-17" as="offset" />
          </mxGeometry>
        </mxCell>
        <mxCell id="TGVfy2ttgha-GvC5qpDi-32" value="E&lt;div&gt;.................&lt;/div&gt;&lt;div&gt;&lt;br&gt;&lt;/div&gt;&lt;div&gt;&lt;br&gt;&lt;/div&gt;&lt;div&gt;&lt;br&gt;&lt;/div&gt;" style="rhombus;whiteSpace=wrap;html=1;" parent="1" vertex="1">
          <mxGeometry x="-22" y="240" width="80" height="80" as="geometry" />
        </mxCell>
        <mxCell id="TGVfy2ttgha-GvC5qpDi-33" value="1:N" style="text;html=1;align=center;verticalAlign=middle;resizable=0;points=[];autosize=1;strokeColor=none;fillColor=none;" parent="1" vertex="1">
          <mxGeometry x="-2" y="200" width="40" height="30" as="geometry" />
        </mxCell>
        <mxCell id="TGVfy2ttgha-GvC5qpDi-36" value="" style="endArrow=none;html=1;rounded=0;exitX=0.493;exitY=1.068;exitDx=0;exitDy=0;exitPerimeter=0;entryX=0;entryY=0.5;entryDx=0;entryDy=0;" parent="1" source="TGVfy2ttgha-GvC5qpDi-22" target="TGVfy2ttgha-GvC5qpDi-40" edge="1">
          <mxGeometry width="50" height="50" relative="1" as="geometry">
            <mxPoint x="-190" y="500" as="sourcePoint" />
            <mxPoint x="72" y="500" as="targetPoint" />
            <Array as="points">
              <mxPoint x="-281" y="510" />
            </Array>
          </mxGeometry>
        </mxCell>
        <mxCell id="TGVfy2ttgha-GvC5qpDi-37" value="(0,1)" style="edgeLabel;html=1;align=center;verticalAlign=middle;resizable=0;points=[];" parent="TGVfy2ttgha-GvC5qpDi-36" vertex="1" connectable="0">
          <mxGeometry x="0.1587" y="-1" relative="1" as="geometry">
            <mxPoint as="offset" />
          </mxGeometry>
        </mxCell>
        <mxCell id="TGVfy2ttgha-GvC5qpDi-38" value="" style="endArrow=none;html=1;rounded=0;exitX=0.493;exitY=1.125;exitDx=0;exitDy=0;exitPerimeter=0;entryX=1;entryY=0.5;entryDx=0;entryDy=0;" parent="1" source="TGVfy2ttgha-GvC5qpDi-17" target="TGVfy2ttgha-GvC5qpDi-40" edge="1">
          <mxGeometry width="50" height="50" relative="1" as="geometry">
            <mxPoint x="244" y="495" as="sourcePoint" />
            <mxPoint x="58" y="500" as="targetPoint" />
            <Array as="points">
              <mxPoint x="319" y="510" />
            </Array>
          </mxGeometry>
        </mxCell>
        <mxCell id="TGVfy2ttgha-GvC5qpDi-39" value="(1,1)" style="edgeLabel;html=1;align=center;verticalAlign=middle;resizable=0;points=[];" parent="TGVfy2ttgha-GvC5qpDi-38" vertex="1" connectable="0">
          <mxGeometry x="-0.2416" relative="1" as="geometry">
            <mxPoint x="-17" as="offset" />
          </mxGeometry>
        </mxCell>
        <mxCell id="TGVfy2ttgha-GvC5qpDi-40" value="E&lt;div&gt;.................&lt;/div&gt;&lt;div&gt;&lt;br&gt;&lt;/div&gt;&lt;div&gt;&lt;br&gt;&lt;/div&gt;&lt;div&gt;&lt;br&gt;&lt;/div&gt;" style="rhombus;whiteSpace=wrap;html=1;" parent="1" vertex="1">
          <mxGeometry x="-22" y="470" width="80" height="80" as="geometry" />
        </mxCell>
        <mxCell id="TGVfy2ttgha-GvC5qpDi-41" value="1:1" style="text;html=1;align=center;verticalAlign=middle;resizable=0;points=[];autosize=1;strokeColor=none;fillColor=none;" parent="1" vertex="1">
          <mxGeometry x="-2" y="420" width="40" height="30" as="geometry" />
        </mxCell>
      </root>
    </mxGraphModel>
  </diagram>
</mxfile>
